<svg height="64" viewBox="0 0 52 58" width="64" xmlns="http://www.w3.org/2000/svg">
                   <g id="Page-1" fill="#ffffff" fill-rule="evenodd">
                    <path id="Shape" d="m 5.5924415,15.888 c 0.689576,-0.850221 1.934556,-0.988067 2.793425,-0.309293 0.858869,0.678775 1.01244,1.921914 0.344575,2.789293 -3.080792,3.874075 -4.749496,8.682314 -4.731,13.632 C 3.9968145,43.81419 13.325754,53.521229 25.13073,53.987735 36.935706,54.45424 47.001556,45.513639 47.931221,33.736084 48.860886,21.958529 40.322412,11.54939 28.590442,10.158 l 2.709,2.323 c 0.805609,0.726128 0.885668,1.962033 0.180472,2.786027 -0.705196,0.823994 -1.938636,0.935771 -2.780472,0.251973 l -7,-6 C 21.25581,9.139031 21.000457,8.5841111 21.000457,8 c 0,-0.5841111 0.255353,-1.1390314 0.698985,-1.519 l 7,-6 c 0.539853,-0.48659126 1.301183,-0.64202535 1.988568,-0.4059887 0.687386,0.2360366 1.192625,0.8263892 1.319668,1.5419814 C 32.134722,2.3325849 31.863571,3.0607745 31.299442,3.519 l -3.019,2.587 C 42.289945,7.3398222 52.778928,19.489857 51.954757,33.529417 51.130586,47.568977 39.292047,58.408309 25.234406,57.994492 11.176766,57.580675 -0.00366845,46.06373 -5.5845031e-4,32 -0.02194145,26.149702 1.9507985,20.466743 5.5924415,15.888 Z" style="fill:#ffffff;fill-rule:nonzero"></path>
                    <path id="path25" d="m 18.518442,15.3 c -0.345217,0.403014 -0.836445,0.652314 -1.365537,0.693013 -0.529093,0.0407 -1.05267,-0.130538 -1.455463,-0.476013 l -7.0000005,-6 C 8.2538095,9.137031 7.9984565,8.5821111 7.9984565,7.998 c 0,-0.5841111 0.255353,-1.1390315 0.698985,-1.519 l 7.0000005,-6 c 0.539853,-0.48659126 1.301183,-0.64202535 1.988568,-0.4059887 0.687386,0.2360366 1.192625,0.8263892 1.319668,1.5419814 C 19.132722,2.3305849 18.861571,3.0587745 18.297442,3.517 l -5.225,4.483 5.227,4.481 c 0.838569,0.718149 0.936595,1.979957 0.219,2.819 z" style="fill:#ffffff;fill-rule:nonzero"></path>
                    <path id="path27" d="m 15,40 c -1.104569,0 -2,0.895431 -2,2 0,1.104569 0.895431,2 2,2 h 6 c 1.104569,0 2,-0.895431 2,-2 0,-1.104569 -0.895431,-2 -2,-2 H 20 V 23 C 19.999864,22.262562 19.593937,21.58503 18.943766,21.237045 18.293595,20.88906 17.504684,20.92709 16.891,21.336 l -3,2 c -0.895079,0.599923 -1.153983,1.801111 -0.585512,2.716488 C 13.87396,26.967865 15.06543,27.268334 16,26.732 V 40 Z" style="fill:#ffffff;fill-rule:nonzero"></path>
                    <path id="path29" d="m 31,21 c -2.761424,0 -5,2.238576 -5,5 v 13 c 0,2.761424 2.238576,5 5,5 h 3 c 2.761424,0 5,-2.238576 5,-5 V 26 c 0,-2.761424 -2.238576,-5 -5,-5 z m 4,5 v 13 c 0,0.552285 -0.447715,1 -1,1 h -3 c -0.552285,0 -1,-0.447715 -1,-1 V 26 c 0,-0.552285 0.447715,-1 1,-1 h 3 c 0.552285,0 1,0.447715 1,1 z" style="fill:#ffffff;fill-rule:nonzero"></path>
                  </g>
                </svg>