<svg height="64" viewBox="0 0 52 58" width="64" xmlns="http://www.w3.org/2000/svg">
    <g id="Page-1" fill="#ffffff" fill-rule="evenodd">
        <path id="Shape" d="M 46.407,15.888 C 45.717424,15.037779 44.472444,14.899933 43.613575,15.578707 42.754706,16.257482 42.601135,17.500621 43.269,18.368 46.349792,22.242075 48.018496,27.050314 48,32 48.002627,43.81419 38.673688,53.521229 26.868712,53.987735 15.063736,54.45424 4.9978851,45.513639 4.0682205,33.736084 3.1385559,21.958529 11.67703,11.54939 23.409,10.158 L 20.7,12.481 c -0.805609,0.726128 -0.885668,1.962033 -0.180472,2.786027 0.705196,0.823994 1.938636,0.935771 2.780472,0.251973 l 7,-6 C 30.743632,9.139031 30.998985,8.5841111 30.998985,8 30.998985,7.4158889 30.743632,6.8609686 30.3,6.481 l -7,-6 C 22.760147,-0.00559126 21.998817,-0.16102535 21.311432,0.0750113 20.624046,0.3110479 20.118807,0.9014005 19.991764,1.6169927 19.86472,2.3325849 20.135871,3.0607745 20.7,3.519 l 3.019,2.587 C 9.709497,7.3398222 -0.77948671,19.489857 0.0446845,33.529417 0.8688557,47.568977 12.707395,58.408309 26.765036,57.994492 40.822676,57.580675 52.00311,46.06373 52,32 52.021383,26.149702 50.048643,20.466743 46.407,15.888 Z" style="fill:#ffffff;fill-rule:nonzero"></path>
        <path id="path25" d="m 33.481,15.3 c 0.345217,0.403014 0.836445,0.652314 1.365537,0.693013 0.529093,0.0407 1.05267,-0.130538 1.455463,-0.476013 l 7,-6 c 0.443632,-0.379969 0.698985,-0.9348889 0.698985,-1.519 0,-0.5841111 -0.255353,-1.1390315 -0.698985,-1.519 l -7,-6 C 35.762147,-0.00759126 35.000817,-0.16302535 34.313432,0.0730113 33.626046,0.3090479 33.120807,0.8994005 32.993764,1.6149927 32.86672,2.3305849 33.137871,3.0587745 33.702,3.517 L 38.927,8 33.7,12.481 c -0.838569,0.718149 -0.936595,1.979957 -0.219,2.819 z" style="fill:#ffffff;fill-rule:nonzero"></path>
        <path id="path27" d="m 15,40 c -1.104569,0 -2,0.895431 -2,2 0,1.104569 0.895431,2 2,2 h 6 c 1.104569,0 2,-0.895431 2,-2 0,-1.104569 -0.895431,-2 -2,-2 H 20 V 23 C 19.999864,22.262562 19.593937,21.58503 18.943766,21.237045 18.293595,20.88906 17.504684,20.92709 16.891,21.336 l -3,2 c -0.895079,0.599923 -1.153983,1.801111 -0.585512,2.716488 C 13.87396,26.967865 15.06543,27.268334 16,26.732 V 40 Z" style="fill:#ffffff;fill-rule:nonzero"></path>
        <path id="path29" d="m 31,21 c -2.761424,0 -5,2.238576 -5,5 v 13 c 0,2.761424 2.238576,5 5,5 h 3 c 2.761424,0 5,-2.238576 5,-5 V 26 c 0,-2.761424 -2.238576,-5 -5,-5 z m 4,5 v 13 c 0,0.552285 -0.447715,1 -1,1 h -3 c -0.552285,0 -1,-0.447715 -1,-1 V 26 c 0,-0.552285 0.447715,-1 1,-1 h 3 c 0.552285,0 1,0.447715 1,1 z" style="fill:#ffffff;fill-rule:nonzero"></path>
    </g>
</svg>